{"title":"Teacher-Student in Classroom with Audio_{HQ}_2IN1.mp4","uid":8545206,"size":142282479,"categoryP":"porn","categoryS":"movie_clips","magnet":"?xt=urn:btih:7ea9d8ff8a98fddf43984b2ff2940e38dbb7bf2b&amp;dn=Teacher-Student+in+Classroom+with+Audio_%7BHQ%7D_2IN1.mp4&amp;tr=udp%3A%2F%2Ftracker.openbittorrent.com%3A80&amp;tr=udp%3A%2F%2Fopen.demonii.com%3A1337&amp;tr=udp%3A%2F%2Ftracker.coppersurfer.tk%3A6969&amp;tr=udp%3A%2F%2Fexodus.desync.com%3A6969","seeders":0,"leechers":1,"uploader":"somnath2003","files":1,"time":1370509007,"description":"[img]http://www.shotpix.com/images/44663617507488027387.gif[/img]\n\n[code]Complete name                            : Teacher-Student in Classroom with Audio_{HQ}_2IN1.mp4\nFormat                                   : MPEG-4\nFormat profile                           : Base Media\nCodec ID                                 : isom\nFile size                                : 136 MiB\nDuration                                 : 14mn 3s\nOverall bit rate mode                    : Variable\nOverall bit rate                         : 1 349 Kbps\nWriting application                      : Lavf53.24.2[/code]\n\n[img]http://www.shotpix.com/images/34235854661596452485.gif[/img]\n\n[code]ID                                       : 1\nFormat                                   : AVC\nFormat/Info                              : Advanced Video Codec\nFormat profile                           : &lt;a class=&quot;__cf_email__&quot; href=&quot;/cdn-cgi/l/email-protection&quot; data-cfemail=&quot;1f5d7e6c7a7376717a5f532c312f&quot;&gt;[email&amp;#160;protected]&lt;/a&gt;&lt;script cf-hash='f9e31' type=&quot;text/javascript&quot;&gt;\n/* &lt;![CDATA[ */!function(){try{var t=&quot;currentScript&quot;in document?document.currentScript:function(){for(var t=document.getElementsByTagName(&quot;script&quot;),e=t.length;e--;)if(t[e].getAttribute(&quot;cf-hash&quot;))return t[e]}();if(t&amp;&amp;t.previousSibling){var e,r,n,i,c=t.previousSibling,a=c.getAttribute(&quot;data-cfemail&quot;);if(a){for(e=&quot;&quot;,r=parseInt(a.substr(0,2),16),n=2;a.length-n;n+=2)i=parseInt(a.substr(n,2),16)^r,e+=String.fromCharCode(i);e=document.createTextNode(e),c.parentNode.replaceChild(e,c)}}}catch(u){}}();/* ]]&gt; */&lt;/script&gt;\nFormat settings, CABAC                   : No\nFormat settings, ReFrames                : 1 frame\nCodec ID                                 : avc1\nCodec ID/Info                            : Advanced Video Coding\nDuration                                 : 14mn 3s\nBit rate                                 : 1 200 Kbps\nWidth                                    : 720 pixels\nHeight                                   : 480 pixels\nDisplay aspect ratio                     : 16:9\nOriginal display aspect ratio            : 16:9\nFrame rate mode                          : Constant\nFrame rate                               : 29.970 fps\nStandard                                 : NTSC\nColor space                              : YUV\nChroma subsampling                       : 4:2:0\nBit depth                                : 8 bits\nScan type                                : Progressive\nBits/(Pixel*Frame)                       : 0.116\nStream size                              : 123 MiB (90%)\nWriting library                          : x264 core 118[/code]\n\n[img]http://www.shotpix.com/images/54760780871226007874.gif[/img]\n\n[code]ID                                       : 2\nFormat                                   : AAC\nFormat/Info                              : Advanced Audio Codec\nFormat profile                           : LC\nCodec ID                                 : 40\nDuration                                 : 14mn 3s\nBit rate mode                            : Variable\nBit rate                                 : 123 Kbps\nMaximum bit rate                         : 128 Kbps\nChannel(s)                               : 2 channels\nChannel positions                        : Front: L R\nSampling rate                            : 44.1 KHz\nCompression mode                         : Lossy\nStream size                              : 12.4 MiB (9%)[/code]\n\n\n[img]http://www.shotpix.com/images/50894759808379845433.gif[/img]\n\n\n[img]http://img829.imageshack.us/img829/8895/teacherstudentinclassro.jpg[/img]\n\n\n[img]http://www.shotpix.com/images/54805531119757981546.gif[/img]","torrent":{"xt":"urn:btih:7ea9d8ff8a98fddf43984b2ff2940e38dbb7bf2b","amp;dn":"Teacher-Student+in+Classroom+with+Audio_%7BHQ%7D_2IN1.mp4","amp;tr":["udp%3A%2F%2Ftracker.openbittorrent.com%3A80","udp%3A%2F%2Fopen.demonii.com%3A1337","udp%3A%2F%2Ftracker.coppersurfer.tk%3A6969","udp%3A%2F%2Fexodus.desync.com%3A6969"],"infoHash":"7ea9d8ff8a98fddf43984b2ff2940e38dbb7bf2b","infoHashBuffer":{"type":"Buffer","data":[126,169,216,255,138,152,253,223,67,152,75,47,242,148,14,56,219,183,191,43]},"announce":[],"urlList":[]}}